<svg xmlns="http://www.w3.org/2000/svg" viewBox="0 0 96 96" width="96" height="96" role="img" aria-hidden="true">
  <style>
  :root { color: #eaf0ff; }
  .s { fill: none; stroke: currentColor; stroke-width: 5.5; stroke-linecap: round; stroke-linejoin: round; }
  .m { fill: currentColor; opacity: .16; stroke: currentColor; stroke-width: 4; stroke-linecap: round; stroke-linejoin: round; }
  .f { fill: currentColor; }
  .soft { fill: currentColor; opacity: .22; }
</style>

  <path class="m" d="M48 10 76 24v24c0 19-12 31-28 38-16-7-28-19-28-38V24l28-14Z"/>
  <path class="s" d="M48 10 76 24v24c0 19-12 31-28 38-16-7-28-19-28-38V24l28-14Z"/>
  <path class="s" d="M30 58h36"/>
  <path class="s" d="M33 58l4-25 11 15 11-15 4 25"/>
  <circle class="f" cx="37" cy="31" r="4"/>
  <circle class="f" cx="48" cy="46" r="3.2"/>
  <circle class="f" cx="59" cy="31" r="4"/>
  <path class="s" d="M39 69h18" opacity=".72"/>

</svg>
