<svg xmlns="http://www.w3.org/2000/svg" viewBox="0 0 96 96" width="96" height="96" role="img" aria-hidden="true">
  <style>
  :root { color: #eaf0ff; }
  .s { fill: none; stroke: currentColor; stroke-width: 5.5; stroke-linecap: round; stroke-linejoin: round; }
  .m { fill: currentColor; opacity: .16; stroke: currentColor; stroke-width: 4; stroke-linecap: round; stroke-linejoin: round; }
  .f { fill: currentColor; }
  .soft { fill: currentColor; opacity: .22; }
</style>

  <path class="soft" d="M48 7 77 22v25c0 20-12 33-29 41-17-8-29-21-29-41V22L48 7Z"/>
  <path class="s" d="M48 7 77 22v25c0 20-12 33-29 41-17-8-29-21-29-41V22L48 7Z"/>
  <path class="s" d="M34 36h28v14c0 9-6 16-14 16s-14-7-14-16V36Z"/>
  <path class="s" d="M34 41H23c0 10 5 17 14 18M62 41h11c0 10-5 17-14 18" opacity=".88"/>
  <path class="s" d="M42 66v8h12v-8M36 78h24"/>
  <path class="s" d="M35 31l4-12 9 9 9-9 4 12"/>
  <path class="f" d="M48 42l3.9 7.9 8.7 1.3-6.3 6.1 1.5 8.7-7.8-4.1-7.8 4.1 1.5-8.7-6.3-6.1 8.7-1.3L48 42Z"/>

</svg>
