<svg xmlns="http://www.w3.org/2000/svg" viewBox="0 0 96 96" width="96" height="96" role="img" aria-hidden="true">
  <style>
  :root { color: #eaf0ff; }
  .s { fill: none; stroke: currentColor; stroke-width: 5.5; stroke-linecap: round; stroke-linejoin: round; }
  .m { fill: currentColor; opacity: .16; stroke: currentColor; stroke-width: 4; stroke-linecap: round; stroke-linejoin: round; }
  .f { fill: currentColor; }
  .soft { fill: currentColor; opacity: .22; }
</style>

  <path class="m" d="M48 10 76 24v24c0 19-12 31-28 38-16-7-28-19-28-38V24l28-14Z"/>
  <path class="s" d="M48 10 76 24v24c0 19-12 31-28 38-16-7-28-19-28-38V24l28-14Z"/>
  <path class="s" d="M32 40 41 28h14l9 12-16 25-16-25Z"/>
  <path class="s" d="M32 40h32M41 28l7 37M55 28l-7 37" opacity=".8"/>
  <path class="s" d="M72 19v10M67 24h10"/>
  <path class="s" d="M24 63v8M20 67h8" opacity=".75"/>

</svg>
