<svg xmlns="http://www.w3.org/2000/svg" style="display:none">
  <!-- Use with: <svg class="league-icon"><use href="#league-gold"></use></svg> -->
  <defs>
    <style>
      .s { fill: none; stroke: currentColor; stroke-width: 5.5; stroke-linecap: round; stroke-linejoin: round; }
      .m { fill: currentColor; opacity: .16; stroke: currentColor; stroke-width: 4; stroke-linecap: round; stroke-linejoin: round; }
      .f { fill: currentColor; }
      .soft { fill: currentColor; opacity: .22; }
    </style>
  </defs>
  <symbol id="league-none" viewBox="0 0 96 96">


  <circle class="s" cx="48" cy="48" r="29" opacity=".72"/>
  <path class="s" d="M36 48h24" opacity=".88"/>
  <circle class="f" cx="48" cy="72" r="3.2" opacity=".55"/>

  </symbol>
  <symbol id="league-bronze" viewBox="0 0 96 96">


  <path class="m" d="M48 10 76 24v24c0 19-12 31-28 38-16-7-28-19-28-38V24l28-14Z"/>
  <path class="s" d="M48 10 76 24v24c0 19-12 31-28 38-16-7-28-19-28-38V24l28-14Z"/>
  <path class="s" d="M34 52 48 38l14 14"/>
  <path class="s" d="M38 64h20" opacity=".7"/>

  </symbol>
  <symbol id="league-silver" viewBox="0 0 96 96">


  <path class="m" d="M48 10 76 24v24c0 19-12 31-28 38-16-7-28-19-28-38V24l28-14Z"/>
  <path class="s" d="M48 10 76 24v24c0 19-12 31-28 38-16-7-28-19-28-38V24l28-14Z"/>
  <path class="s" d="M32 56 48 40l16 16"/>
  <path class="s" d="M36 68 48 56l12 12"/>
  <path class="f" d="M67 30l2.3 4.5 5 1-3.6 3.6.7 5-4.4-2.3-4.5 2.3.8-5-3.7-3.6 5.1-1L67 30Z" opacity=".85"/>

  </symbol>
  <symbol id="league-gold" viewBox="0 0 96 96">


  <path class="m" d="M48 10 76 24v24c0 19-12 31-28 38-16-7-28-19-28-38V24l28-14Z"/>
  <path class="s" d="M48 10 76 24v24c0 19-12 31-28 38-16-7-28-19-28-38V24l28-14Z"/>
  <path class="s" d="M30 58h36"/>
  <path class="s" d="M33 58l4-25 11 15 11-15 4 25"/>
  <circle class="f" cx="37" cy="31" r="4"/>
  <circle class="f" cx="48" cy="46" r="3.2"/>
  <circle class="f" cx="59" cy="31" r="4"/>
  <path class="s" d="M39 69h18" opacity=".72"/>

  </symbol>
  <symbol id="league-diamond" viewBox="0 0 96 96">


  <path class="m" d="M48 10 76 24v24c0 19-12 31-28 38-16-7-28-19-28-38V24l28-14Z"/>
  <path class="s" d="M48 10 76 24v24c0 19-12 31-28 38-16-7-28-19-28-38V24l28-14Z"/>
  <path class="s" d="M32 40 41 28h14l9 12-16 25-16-25Z"/>
  <path class="s" d="M32 40h32M41 28l7 37M55 28l-7 37" opacity=".8"/>
  <path class="s" d="M72 19v10M67 24h10"/>
  <path class="s" d="M24 63v8M20 67h8" opacity=".75"/>

  </symbol>
  <symbol id="league-legendary" viewBox="0 0 96 96">


  <path class="soft" d="M48 7 77 22v25c0 20-12 33-29 41-17-8-29-21-29-41V22L48 7Z"/>
  <path class="s" d="M48 7 77 22v25c0 20-12 33-29 41-17-8-29-21-29-41V22L48 7Z"/>
  <path class="s" d="M34 36h28v14c0 9-6 16-14 16s-14-7-14-16V36Z"/>
  <path class="s" d="M34 41H23c0 10 5 17 14 18M62 41h11c0 10-5 17-14 18" opacity=".88"/>
  <path class="s" d="M42 66v8h12v-8M36 78h24"/>
  <path class="s" d="M35 31l4-12 9 9 9-9 4 12"/>
  <path class="f" d="M48 42l3.9 7.9 8.7 1.3-6.3 6.1 1.5 8.7-7.8-4.1-7.8 4.1 1.5-8.7-6.3-6.1 8.7-1.3L48 42Z"/>

  </symbol>
</svg>
