<svg xmlns="http://www.w3.org/2000/svg" viewBox="0 0 96 96" width="96" height="96" role="img" aria-hidden="true">
  <style>
  :root { color: #eaf0ff; }
  .s { fill: none; stroke: currentColor; stroke-width: 5.5; stroke-linecap: round; stroke-linejoin: round; }
  .m { fill: currentColor; opacity: .16; stroke: currentColor; stroke-width: 4; stroke-linecap: round; stroke-linejoin: round; }
  .f { fill: currentColor; }
  .soft { fill: currentColor; opacity: .22; }
</style>

  <path class="m" d="M48 10 76 24v24c0 19-12 31-28 38-16-7-28-19-28-38V24l28-14Z"/>
  <path class="s" d="M48 10 76 24v24c0 19-12 31-28 38-16-7-28-19-28-38V24l28-14Z"/>
  <path class="s" d="M32 56 48 40l16 16"/>
  <path class="s" d="M36 68 48 56l12 12"/>
  <path class="f" d="M67 30l2.3 4.5 5 1-3.6 3.6.7 5-4.4-2.3-4.5 2.3.8-5-3.7-3.6 5.1-1L67 30Z" opacity=".85"/>

</svg>
